<svg width="36" height="36" viewBox="0 0 36 36" fill="none" xmlns="http://www.w3.org/2000/svg">
<circle cx="18" cy="18" r="17" stroke="#A1A1A1" stroke-width="2"/>
<path d="M19.32 16.7C20.5467 16.9 21.4867 17.36 22.14 18.08C22.7933 18.7867 23.12 19.6667 23.12 20.72C23.12 21.5333 22.9067 22.2867 22.48 22.98C22.0533 23.66 21.4 24.2067 20.52 24.62C19.6533 25.0333 18.5867 25.24 17.32 25.24C16.3333 25.24 15.36 25.1133 14.4 24.86C13.4533 24.5933 12.6467 24.22 11.98 23.74L13.24 21.26C13.7733 21.66 14.3867 21.9733 15.08 22.2C15.7867 22.4133 16.5067 22.52 17.24 22.52C18.0533 22.52 18.6933 22.3667 19.16 22.06C19.6267 21.74 19.86 21.2933 19.86 20.72C19.86 19.5733 18.9867 19 17.24 19H15.76V16.86L18.64 13.6H12.68V11H22.48V13.1L19.32 16.7Z" fill="#A1A1A1"/>
</svg>
