<svg width="36" height="36" viewBox="0 0 36 36" fill="none" xmlns="http://www.w3.org/2000/svg">
<circle cx="18" cy="18" r="17" stroke="#A1A1A1" stroke-width="2"/>
<path d="M23.24 22.36V25H12.66V22.9L18.06 17.8C18.6333 17.2533 19.02 16.7867 19.22 16.4C19.42 16 19.52 15.6067 19.52 15.22C19.52 14.66 19.3267 14.2333 18.94 13.94C18.5667 13.6333 18.0133 13.48 17.28 13.48C16.6667 13.48 16.1133 13.6 15.62 13.84C15.1267 14.0667 14.7133 14.4133 14.38 14.88L12.02 13.36C12.5667 12.5467 13.32 11.9133 14.28 11.46C15.24 10.9933 16.34 10.76 17.58 10.76C18.62 10.76 19.5267 10.9333 20.3 11.28C21.0867 11.6133 21.6933 12.0933 22.12 12.72C22.56 13.3333 22.78 14.06 22.78 14.9C22.78 15.66 22.62 16.3733 22.3 17.04C21.98 17.7067 21.36 18.4667 20.44 19.32L17.22 22.36H23.24Z" fill="#A1A1A1"/>
</svg>
